<?xml version="1.0" encoding="utf-8"?>
<!-- Generator: Adobe Illustrator 24.2.0, SVG Export Plug-In . SVG Version: 6.00 Build 0)  -->
<svg version="1.1" id="Layer_1" xmlns="http://www.w3.org/2000/svg" xmlns:xlink="http://www.w3.org/1999/xlink" x="0px" y="0px"
	 viewBox="0 0 382 110" style="enable-background:new 0 0 382 110;" xml:space="preserve">
<g>
	<path d="M138.2,45.67c-0.38,6.88-9.6,22.04-24.36,35.49c-16.65,15.18-34.85,23.41-49.95,22.59c-10.75-0.58-19.06-17.82-27.86-36.07
		c-7.4-15.35-15.62-32.38-27.37-44.35l37,10.87c-2.13,10.83-2.43,21.43-0.15,27.26c3.4,8.69,15.83,13.2,25.67,15.46
		c9.15,2.1,21.86,3.33,28.17,1.06c4.81-1.74,8.36-6.83,10.25-14.71c2.14-8.88,1.89-21.04-2.8-26.05c-6.9-7.38-22.63-4.61-40.85-1.41
		l0.81,4.59l0.81,4.59c11.54-2.03,28.97-5.09,32.42-1.41c1.3,1.4,2.52,9.3,0.54,17.51c-1.19,4.95-3.04,7.65-4.36,8.12
		c-3.17,1.15-12.82,0.95-22.9-1.37C60.91,65,55.27,60.8,54.2,58.06c-1.41-3.58-1.2-12.03,0.48-21.21c1.48-8.06,4.1-16.68,7.78-23.04
		c2.6-4.5,5.37-7.17,7.8-7.53c8.87-1.31,43.37,12.64,60.39,28.17C137.68,40.84,138.27,44.42,138.2,45.67z"/>
</g>
<path d="M177.75,50.02h-5.97l2.04-7.76h3.94V31.11l9.03,0.06v11.1h6l-2.01,7.76h-3.99v9.6c0,2.57,1.6,3.85,4.81,3.85
	c1.04,0,1.83-0.12,2.38-0.37l-2.6,9c-0.47,0.08-0.93,0.11-1.39,0.11c-2.7,0-4.95-0.43-6.74-1.3c-1.81-0.87-3.18-2.18-4.11-3.94
	c-0.93-1.74-1.39-3.95-1.39-6.65V50.02z"/>
<path d="M218.71,70.75c-1.72,0.7-3.3,1.11-4.76,1.25c-8.93,0.94-13.39-3.31-13.39-12.77v-16.9h9.06V58.6c0,1.72,0.4,3.02,1.19,3.91
	c0.79,0.87,1.91,1.3,3.34,1.3c1.38,0,2.48-0.44,3.31-1.33c0.79-0.89,1.19-2.18,1.19-3.88V42.35l9.06-0.03v32.39
	c0,3.51-1.25,6.53-3.74,9.06c-1.13,1.13-2.69,2.06-4.67,2.78c-1.79,0.64-3.6,0.96-5.41,0.96h-1.5c-4.04-0.08-7.28-1.32-9.71-3.74
	c-1.59-1.62-2.57-3.08-2.94-4.36l8.18-4.79c0.08,1.43,0.63,2.64,1.67,3.62c1.04,0.98,2.27,1.47,3.71,1.47
	c1.11,0,2.13-0.32,3.06-0.96c0.87-0.58,1.52-1.4,1.95-2.43l0.03-0.08l0.06-0.14l0.06-0.2l0.06-0.2c0.08-0.17,0.12-0.39,0.14-0.65
	c0-0.04,0.01-0.08,0.03-0.14v-0.28h0.03V70.75z"/>
<path d="M238.07,62.17c1.79,1.79,3.98,2.69,6.57,2.69c2.7,0,4.05-0.79,4.05-2.38c0-0.83-0.75-1.44-2.24-1.84
	c-1.06-0.25-2.74-0.67-5.04-1.27c-1.87-0.49-3.44-1.4-4.73-2.72c-1.27-1.3-1.9-3.3-1.9-6c0-2.08,0.52-3.83,1.56-5.27
	c1.06-1.43,2.42-2.49,4.11-3.17c1.72-0.7,3.6-1.05,5.63-1.05c1.15,0,2.32,0.16,3.51,0.48c1.28,0.4,2.43,0.89,3.45,1.47
	c1.11,0.62,2.09,1.32,2.94,2.1l-4.98,4.96c-1.45-1.09-3.04-1.64-4.76-1.64c-2.06,0-3.09,0.58-3.09,1.73c0,1.04,0.76,1.76,2.29,2.18
	c1.68,0.45,3.37,0.88,5.07,1.27c1.87,0.47,3.43,1.34,4.67,2.6c1.26,1.28,1.9,3.3,1.9,6.06c0,2.06-0.55,3.83-1.64,5.32
	c-1.09,1.51-2.56,2.63-4.39,3.37c-1.83,0.77-3.73,1.16-5.69,1.16c-1.64,0-3.13-0.13-4.45-0.4c-1.32-0.25-2.56-0.66-3.71-1.25
	c-1.19-0.58-2.43-1.37-3.74-2.35L238.07,62.17z"/>
<path d="M275.37,49.34c-2.3,0.09-3.45,1.7-3.45,4.81v17.13h-9.06V54.16c0-8.25,4.17-12.58,12.51-13h0.51
	c8.34,0.42,12.51,4.75,12.51,13v17.13h-9.06V54.16c0-3.11-1.15-4.72-3.45-4.81H275.37z"/>
<path d="M294.87,64.3c0.49-0.79,1.12-1.41,1.9-1.84c0.79-0.45,1.63-0.68,2.52-0.68c0.89,0,1.73,0.23,2.52,0.68
	c0.77,0.47,1.4,1.09,1.87,1.87c0.47,0.75,0.71,1.58,0.71,2.49c0,1.51-0.49,2.76-1.47,3.74c-1,1-2.21,1.5-3.62,1.5
	c-0.94,0-1.8-0.23-2.58-0.68c-0.79-0.45-1.42-1.08-1.87-1.9c-0.45-0.83-0.68-1.72-0.68-2.66C294.16,65.89,294.4,65.05,294.87,64.3z"
	/>
<path d="M310.15,71.32l10.65-15.06l-9.94-13.87l9.94-0.06l5.27,8.04l5.63-8.04l9.77,0.03l-10.48,14.02l11.04,14.87l-10.79,0.06
	l-5.52-8.38l-5.97,8.38L310.15,71.32z"/>
<path d="M360.31,63.96h0.51c2.3-0.08,3.45-1.67,3.45-4.79V42.29h9.06v16.88c0,8.21-4.17,12.54-12.51,13h-0.51
	c-8.34-0.45-12.51-4.79-12.51-13V42.29h9.06v16.88C356.86,62.28,358.01,63.88,360.31,63.96z"/>
</svg>
